<svg width="18" height="24" viewBox="0 0 18 24" fill="none" xmlns="http://www.w3.org/2000/svg">
<path d="M0.831626 20.276V22.8008C0.831626 22.96 0.894908 23.1125 1.00741 23.2251C1.11991 23.3376 1.27249 23.4008 1.43163 23.4008H9.18603C9.40033 23.4008 9.59845 23.2864 9.70563 23.1008C9.81281 22.9152 9.81282 22.6864 9.70563 22.5008C9.59844 22.3152 9.40031 22.2008 9.18603 22.2008H2.03163V20.2808C2.03132 19.7517 2.18592 19.2341 2.47639 18.7918C2.76679 18.3496 3.18037 18.002 3.66607 17.792L9.19807 15.392H9.19799C9.30463 15.3461 9.39565 15.27 9.46003 15.1734C9.52433 15.0767 9.55925 14.9634 9.56042 14.8472V12.9056C9.56026 12.6939 9.49214 12.4878 9.36604 12.3176C8.87378 11.6042 8.5669 10.7793 8.47322 9.91762C8.45346 9.74731 8.36174 9.59356 8.22118 9.4952C7.6815 9.11942 7.35908 8.50402 7.3572 7.84644C7.35588 7.72668 7.40463 7.6119 7.49158 7.52964C7.57939 7.44613 7.6969 7.40113 7.81798 7.4048C7.98001 7.41128 8.13774 7.35198 8.25532 7.24026C8.37282 7.12862 8.44016 6.97416 8.44196 6.81198L8.46118 4.9808C8.46024 4.57019 8.5368 4.16306 8.6868 3.78081C9.1404 2.64081 10.2972 1.4408 11.7588 1.4408H12.1404V2.1008C12.1402 2.24963 12.1954 2.39322 12.2952 2.50371C12.395 2.61409 12.5322 2.68355 12.6804 2.69839C13.1365 2.76589 13.5736 2.92769 13.9637 3.17355C14.3538 3.41949 14.6883 3.74395 14.946 4.12645C15.1743 4.44473 15.2968 4.82669 15.2964 5.21841V6.79763C15.2964 6.95677 15.3596 7.10935 15.4721 7.22193C15.5846 7.33443 15.7372 7.39764 15.8964 7.39764C16.0144 7.39857 16.1274 7.446 16.2108 7.52967C16.2939 7.61201 16.3398 7.72467 16.338 7.84163C16.3356 8.48577 16.0262 9.09015 15.5051 9.46881C15.3704 9.56842 15.2833 9.71983 15.2651 9.88647C15.1736 10.7759 14.8536 11.6266 14.3364 12.3561C14.2078 12.5276 14.1804 12.7546 14.2646 12.9517C14.3488 13.1489 14.5318 13.2861 14.7446 13.3117C14.9574 13.3374 15.1678 13.2476 15.2964 13.0761C15.8954 12.2449 16.2826 11.2802 16.4243 10.2657C17.1304 9.65575 17.5374 8.76989 17.5404 7.83687C17.5418 7.40179 17.3689 6.98437 17.0604 6.67765C16.8997 6.5171 16.7077 6.39125 16.4964 6.30805V5.21609C16.4989 4.57031 16.2954 3.94063 15.9156 3.41843C15.2946 2.53133 14.384 1.88803 13.3404 1.59929V0.840849C13.3404 0.681709 13.2772 0.529129 13.1647 0.416549C13.0521 0.304049 12.8995 0.240845 12.7404 0.240845H11.7588C9.74284 0.240845 8.17563 1.83686 7.57083 3.31764H7.57076C7.36412 3.8403 7.25826 4.39724 7.2588 4.95928L7.24442 6.29366H7.24434C7.02566 6.37273 6.82614 6.49703 6.6588 6.65843C6.3367 6.96655 6.15528 7.39351 6.15716 7.83929C6.15865 8.79281 6.58334 9.69655 7.31638 10.3065C7.45263 11.265 7.81006 12.1787 8.36036 12.9753V14.4513L3.19076 16.6857C2.4899 16.9885 1.89302 17.4898 1.4738 18.1278C1.05458 18.7658 0.831303 19.5126 0.831543 20.2762L0.831626 20.276Z" fill="#0D0F14"/>
</svg>
