<svg width="8" height="10" viewBox="0 0 8 10" fill="none" xmlns="http://www.w3.org/2000/svg">
<path d="M6.92178 0.566112C6.74708 0.415534 6.52111 0.371995 6.30861 0.446535L2.86211 1.65817C2.48851 1.7895 2.23669 2.15654 2.23669 2.56977V7.77016C2.23669 7.89883 2.13371 8.00436 2.01143 7.99358C1.79768 7.97467 1.56173 8.01056 1.33008 8.10913C0.720774 8.36837 0.374323 8.9598 0.556238 9.4301C0.738178 9.90044 1.37962 10.0715 1.98896 9.81227C2.48511 9.60118 2.80679 9.16987 2.81103 8.76304H2.81123V3.67004C2.81123 3.58862 2.86175 3.51623 2.93697 3.48978L6.33316 2.29586C6.45408 2.25336 6.57992 2.34528 6.57992 2.47612V6.1598C6.57992 6.28848 6.4769 6.39404 6.35463 6.38323C6.14082 6.36428 5.90473 6.40014 5.67298 6.49875C5.06367 6.75799 4.71722 7.34942 4.89914 7.81972C5.08105 8.29002 5.72252 8.46116 6.33186 8.20189C6.83205 7.98907 7.15444 7.55246 7.15346 7.14269C7.15359 7.14173 7.15447 7.14114 7.15447 7.14014V1.121C7.15454 0.909976 7.07736 0.699919 6.92191 0.565944L6.92178 0.566112Z" fill="#0D0F14"/>
</svg>
